<svg width="276" height="120" viewBox="0 0 276 120" fill="none" xmlns="http://www.w3.org/2000/svg">
<path d="M81.7714 84.824V92.636C81.7714 92.828 81.8794 92.924 82.0954 92.924H83.8954C88.1674 92.924 90.3034 91.4 90.3034 88.352C90.3034 85.64 88.3234 84.284 84.3634 84.284C83.6434 84.284 82.8874 84.344 82.0954 84.464C81.8794 84.512 81.7714 84.632 81.7714 84.824ZM78.8554 107C78.3034 107 77.8234 106.796 77.4154 106.388C77.0074 105.98 76.8034 105.5 76.8034 104.948V82.952C76.8034 82.376 76.9954 81.86 77.3794 81.404C77.7634 80.948 78.2434 80.696 78.8194 80.648C80.8594 80.456 82.8274 80.36 84.7234 80.36C88.2514 80.36 90.8914 81.02 92.6434 82.34C94.3954 83.636 95.2714 85.472 95.2714 87.848C95.2714 89.552 94.8034 91.052 93.8674 92.348C92.9554 93.644 91.7194 94.556 90.1594 95.084C90.1354 95.084 90.1234 95.096 90.1234 95.12C90.1234 95.168 90.1354 95.192 90.1594 95.192C91.3114 95.912 92.2954 97.328 93.1114 99.44L95.2714 105.092C95.4394 105.548 95.3794 105.98 95.0914 106.388C94.8274 106.796 94.4554 107 93.9754 107H92.8594C92.2354 107 91.6714 106.832 91.1674 106.496C90.6634 106.136 90.3034 105.668 90.0874 105.092L88.0714 99.548C87.6394 98.396 87.1474 97.64 86.5954 97.28C86.0434 96.92 85.0954 96.74 83.7514 96.74H82.0954C81.8794 96.74 81.7714 96.848 81.7714 97.064V104.948C81.7714 105.5 81.5674 105.98 81.1594 106.388C80.7754 106.796 80.3074 107 79.7554 107H78.8554ZM109.888 98C106.456 98 104.74 99.056 104.74 101.168C104.74 101.936 104.956 102.56 105.388 103.04C105.844 103.52 106.42 103.76 107.116 103.76C108.484 103.76 109.588 103.34 110.428 102.5C111.268 101.636 111.688 100.46 111.688 98.972V98.324C111.688 98.108 111.58 98 111.364 98H109.888ZM105.82 107.36C104.188 107.36 102.832 106.832 101.752 105.776C100.696 104.696 100.168 103.304 100.168 101.6C100.168 99.512 100.96 97.892 102.544 96.74C104.152 95.588 106.6 95.012 109.888 95.012H111.364C111.58 95.012 111.688 94.904 111.688 94.688V94.4C111.688 93.296 111.424 92.528 110.896 92.096C110.368 91.64 109.432 91.412 108.088 91.412C106.696 91.412 104.992 91.664 102.976 92.168C102.544 92.288 102.148 92.216 101.788 91.952C101.428 91.664 101.248 91.292 101.248 90.836C101.248 90.284 101.416 89.792 101.752 89.36C102.088 88.904 102.52 88.628 103.048 88.532C104.872 88.124 106.588 87.92 108.196 87.92C111.268 87.92 113.416 88.472 114.64 89.576C115.864 90.68 116.476 92.612 116.476 95.372V104.948C116.476 105.5 116.272 105.98 115.864 106.388C115.48 106.796 115.012 107 114.46 107H114.064C113.488 107 112.996 106.808 112.588 106.424C112.18 106.016 111.964 105.524 111.94 104.948V104.444C111.94 104.42 111.928 104.408 111.904 104.408C111.856 104.408 111.832 104.42 111.832 104.444C110.368 106.388 108.364 107.36 105.82 107.36ZM127.142 106.712L121.166 90.188C121.022 89.708 121.082 89.276 121.346 88.892C121.61 88.484 121.994 88.28 122.498 88.28H123.578C124.178 88.28 124.73 88.472 125.234 88.856C125.738 89.216 126.062 89.684 126.206 90.26L129.554 102.032C129.554 102.056 129.566 102.068 129.59 102.068C129.614 102.068 129.626 102.056 129.626 102.032L133.478 90.224C133.67 89.648 134.018 89.18 134.522 88.82C135.026 88.46 135.578 88.28 136.178 88.28H137.042C137.546 88.28 137.93 88.484 138.194 88.892C138.482 89.3 138.53 89.732 138.338 90.188L129.554 113.012C129.338 113.588 128.978 114.044 128.474 114.38C127.97 114.74 127.406 114.92 126.782 114.92H125.918C125.438 114.92 125.054 114.716 124.766 114.308C124.502 113.924 124.466 113.504 124.658 113.048L127.142 107.288C127.19 107.192 127.214 107.096 127.214 107C127.214 106.904 127.19 106.808 127.142 106.712ZM144.747 92.492C144.267 92.492 143.859 92.324 143.523 91.988C143.187 91.628 143.019 91.208 143.019 90.728C143.019 90.248 143.187 89.84 143.523 89.504C143.859 89.168 144.267 89 144.747 89H146.475C146.691 89 146.799 88.892 146.799 88.676V84.212C146.799 83.66 146.991 83.18 147.375 82.772C147.783 82.364 148.263 82.16 148.815 82.16H149.535C150.087 82.16 150.567 82.364 150.975 82.772C151.383 83.18 151.587 83.66 151.587 84.212V88.676C151.587 88.892 151.695 89 151.911 89H156.015C156.495 89 156.903 89.168 157.239 89.504C157.599 89.84 157.779 90.248 157.779 90.728C157.779 91.208 157.599 91.628 157.239 91.988C156.903 92.324 156.495 92.492 156.015 92.492H151.911C151.695 92.492 151.587 92.588 151.587 92.78V100.052C151.587 101.612 151.755 102.62 152.091 103.076C152.427 103.532 153.123 103.76 154.179 103.76C154.755 103.76 155.187 103.736 155.475 103.688C155.955 103.64 156.375 103.748 156.735 104.012C157.095 104.276 157.275 104.636 157.275 105.092C157.275 105.62 157.095 106.1 156.735 106.532C156.399 106.94 155.979 107.168 155.475 107.216C154.419 107.312 153.627 107.36 153.099 107.36C150.771 107.36 149.139 106.868 148.203 105.884C147.267 104.876 146.799 103.088 146.799 100.52V92.78C146.799 92.588 146.691 92.492 146.475 92.492H144.747ZM166.975 107C166.423 107 165.943 106.796 165.535 106.388C165.127 105.98 164.923 105.5 164.923 104.948V90.332C164.923 89.78 165.127 89.3 165.535 88.892C165.943 88.484 166.423 88.28 166.975 88.28H167.695C168.247 88.28 168.727 88.484 169.135 88.892C169.543 89.3 169.747 89.78 169.747 90.332V91.844C169.747 91.868 169.759 91.88 169.783 91.88C169.831 91.88 169.855 91.868 169.855 91.844C170.551 90.884 171.463 90.104 172.591 89.504C173.719 88.88 174.955 88.496 176.299 88.352C176.803 88.304 177.235 88.472 177.595 88.856C177.955 89.216 178.135 89.648 178.135 90.152C178.135 90.656 177.955 91.088 177.595 91.448C177.235 91.808 176.803 92.012 176.299 92.06C172.051 92.396 169.927 94.556 169.927 98.54V104.948C169.927 105.5 169.723 105.98 169.315 106.388C168.907 106.796 168.427 107 167.875 107H166.975ZM194.869 92.924C194.173 91.916 193.117 91.412 191.701 91.412C190.285 91.412 189.217 91.916 188.497 92.924C187.801 93.908 187.453 95.48 187.453 97.64C187.453 99.8 187.801 101.384 188.497 102.392C189.217 103.376 190.285 103.868 191.701 103.868C193.117 103.868 194.173 103.376 194.869 102.392C195.589 101.384 195.949 99.8 195.949 97.64C195.949 95.48 195.589 93.908 194.869 92.924ZM198.397 104.84C196.813 106.52 194.581 107.36 191.701 107.36C188.821 107.36 186.577 106.52 184.969 104.84C183.385 103.136 182.593 100.736 182.593 97.64C182.593 94.544 183.385 92.156 184.969 90.476C186.577 88.772 188.821 87.92 191.701 87.92C194.581 87.92 196.813 88.772 198.397 90.476C200.005 92.156 200.809 94.544 200.809 97.64C200.809 100.736 200.005 103.136 198.397 104.84Z" fill="#464646"/>
<path d="M132.359 8.54233C134.691 4.66741 140.309 4.66741 142.641 8.54233L147.216 16.1449C148.054 17.537 149.42 18.5298 151.003 18.8964L159.648 20.8984C164.053 21.9188 165.789 27.2616 162.825 30.6769L157.008 37.3776C155.943 38.6045 155.421 40.2109 155.562 41.8296L156.329 50.6695C156.72 55.175 152.175 58.4771 148.011 56.7129L139.841 53.2516C138.345 52.6178 136.655 52.6178 135.159 53.2516L126.989 56.7129C122.825 58.4771 118.28 55.175 118.671 50.6695L119.438 41.8296C119.579 40.2109 119.057 38.6045 117.992 37.3776L112.175 30.6769C109.211 27.2616 110.947 21.9188 115.352 20.8984L123.997 18.8964C125.58 18.5298 126.946 17.537 127.784 16.1449L132.359 8.54233Z" fill="#311485"/>
<path d="M168.325 44.1253C171.113 41.0463 176.175 42.041 177.59 45.9457V45.9457C178.099 47.3485 179.154 48.4851 180.516 49.0956V49.0956C184.306 50.7952 184.924 55.9172 181.648 58.4699V58.4699C180.471 59.387 179.716 60.7421 179.556 62.2256V62.2256C179.111 66.355 174.43 68.5259 170.99 66.1988V66.1988C169.754 65.3628 168.232 65.0638 166.772 65.37V65.37C162.707 66.2225 159.196 62.4422 160.346 58.4513V58.4513C160.759 57.0176 160.573 55.4776 159.831 54.1834V54.1834C157.764 50.5809 160.274 46.0737 164.425 45.9342V45.9342C165.917 45.8841 167.324 45.2314 168.325 44.1253V44.1253Z" fill="#311485"/>
<path d="M97.4089 45.9462C98.824 42.0414 103.886 41.0463 106.674 44.1251V44.1251C107.675 45.2311 109.083 45.8837 110.574 45.9337V45.9337C114.725 46.0729 117.236 50.5799 115.169 54.1826V54.1826C114.427 55.4768 114.241 57.0169 114.654 58.4506V58.4506C115.804 62.4414 112.294 66.2219 108.229 65.3697V65.3697C106.768 65.0636 105.246 65.3628 104.011 66.1988V66.1988C100.571 68.5262 95.8902 66.3556 95.4446 62.2263V62.2263C95.2845 60.7428 94.5296 59.3877 93.3525 58.4707V58.4707C90.0761 55.9183 90.6941 50.7962 94.4836 49.0964V49.0964C95.845 48.4857 96.9006 47.349 97.4089 45.9462V45.9462Z" fill="#311485"/>
</svg>
